<svg width="20" height="20" viewBox="0 0 20 20" fill="none" xmlns="http://www.w3.org/2000/svg">
<path d="M5.8 0H14.2C17.4 0 20 2.6 20 5.8V14.2C20 15.7383 19.3889 17.2135 18.3012 18.3012C17.2135 19.3889 15.7383 20 14.2 20H5.8C2.6 20 0 17.4 0 14.2V5.8C0 4.26174 0.61107 2.78649 1.69878 1.69878C2.78649 0.61107 4.26174 0 5.8 0ZM5.6 2C4.64522 2 3.72955 2.37928 3.05442 3.05442C2.37928 3.72955 2 4.64522 2 5.6V14.4C2 16.39 3.61 18 5.6 18H14.4C15.3548 18 16.2705 17.6207 16.9456 16.9456C17.6207 16.2705 18 15.3548 18 14.4V5.6C18 3.61 16.39 2 14.4 2H5.6Z" fill="#E0E0DA"/>
<path d="M15.7778 15.7778V11.0667C15.7778 10.2981 15.4725 9.56107 14.929 9.01763C14.3856 8.47419 13.6485 8.16889 12.88 8.16889C12.1244 8.16889 11.2444 8.63111 10.8178 9.32444V8.33778H8.33778V15.7778H10.8178V11.3956C10.8178 10.7111 11.3689 10.1511 12.0533 10.1511C12.3834 10.1511 12.6999 10.2822 12.9333 10.5156C13.1667 10.749 13.2978 11.0655 13.2978 11.3956V15.7778H15.7778Z" fill="#E0E0DA"/>
<path d="M6.68444 15.7778V8.33778H4.22222V15.7778H6.68444Z" fill="#E0E0DA"/>
<path d="M5.44889 6.94222C5.84495 6.94222 6.22478 6.78489 6.50484 6.50484C6.78489 6.22478 6.94222 5.84495 6.94222 5.44889C6.94222 4.62222 6.27556 3.94667 5.44889 3.94667C5.05047 3.94667 4.66838 4.10494 4.38666 4.38666C4.10494 4.66838 3.94667 5.05047 3.94667 5.44889C3.94667 6.27556 4.62222 6.94222 5.44889 6.94222Z" fill="#E0E0DA"/>
</svg>
