<svg width="20" height="20" viewBox="0 0 20 20" fill="none" xmlns="http://www.w3.org/2000/svg">
<path d="M5.8 0H14.2C17.4 0 20 2.6 20 5.8V14.2C20 15.7383 19.3889 17.2135 18.3012 18.3012C17.2135 19.3889 15.7383 20 14.2 20H5.8C2.6 20 0 17.4 0 14.2V5.8C0 4.26174 0.61107 2.78649 1.69878 1.69878C2.78649 0.61107 4.26174 0 5.8 0ZM5.6 2C4.64522 2 3.72955 2.37928 3.05442 3.05442C2.37928 3.72955 2 4.64522 2 5.6V14.4C2 16.39 3.61 18 5.6 18H14.4C15.3548 18 16.2705 17.6207 16.9456 16.9456C17.6207 16.2705 18 15.3548 18 14.4V5.6C18 3.61 16.39 2 14.4 2H5.6Z" fill="black"/>
<path d="M8.78222 8.78222H10.3733V9.32444V10.8947L11.1963 9.55738C11.5397 8.99942 12.2741 8.61333 12.88 8.61333C13.5307 8.61333 14.1547 8.87181 14.6148 9.3319C15.0749 9.79199 15.3333 10.416 15.3333 11.0667V15.3333H13.7422V11.3956C13.7422 10.9476 13.5643 10.5181 13.2476 10.2013C12.9308 9.8846 12.5013 9.70667 12.0533 9.70667C11.1193 9.70667 10.3733 10.4698 10.3733 11.3956V15.3333H8.78222V8.78222ZM6.19057 6.19057C5.99386 6.38727 5.72707 6.49778 5.44889 6.49778C4.86424 6.49778 4.39111 6.02667 4.39111 5.44889C4.39111 5.16835 4.50256 4.8993 4.70093 4.70093C4.8993 4.50256 5.16835 4.39111 5.44889 4.39111C6.02667 4.39111 6.49778 4.86424 6.49778 5.44889C6.49778 5.72707 6.38727 5.99386 6.19057 6.19057ZM4.66667 8.78222H6.24V15.3333H4.66667V8.78222Z" fill="black" stroke="black" stroke-width="0.888889"/>
</svg>
