<svg width="208" height="208" viewBox="0 0 208 208" fill="none" xmlns="http://www.w3.org/2000/svg">
<path d="M192 0H16C11.7565 0 7.68687 1.68571 4.68629 4.68629C1.68571 7.68687 0 11.7565 0 16V192C0 196.243 1.68571 200.313 4.68629 203.314C7.68687 206.314 11.7565 208 16 208H192C196.243 208 200.313 206.314 203.314 203.314C206.314 200.313 208 196.243 208 192V16C208 11.7565 206.314 7.68687 203.314 4.68629C200.313 1.68571 196.243 0 192 0ZM192 192H16V16H192V192ZM72 88V152C72 154.122 71.1571 156.157 69.6569 157.657C68.1566 159.157 66.1217 160 64 160C61.8783 160 59.8434 159.157 58.3431 157.657C56.8429 156.157 56 154.122 56 152V88C56 85.8783 56.8429 83.8434 58.3431 82.3431C59.8434 80.8429 61.8783 80 64 80C66.1217 80 68.1566 80.8429 69.6569 82.3431C71.1571 83.8434 72 85.8783 72 88ZM160 116V152C160 154.122 159.157 156.157 157.657 157.657C156.157 159.157 154.122 160 152 160C149.878 160 147.843 159.157 146.343 157.657C144.843 156.157 144 154.122 144 152V116C144 110.696 141.893 105.609 138.142 101.858C134.391 98.1071 129.304 96 124 96C118.696 96 113.609 98.1071 109.858 101.858C106.107 105.609 104 110.696 104 116V152C104 154.122 103.157 156.157 101.657 157.657C100.157 159.157 98.1217 160 96 160C93.8783 160 91.8434 159.157 90.3431 157.657C88.8429 156.157 88 154.122 88 152V88C88.0099 86.0404 88.7387 84.1527 90.0481 82.6948C91.3575 81.237 93.1565 80.3104 95.1037 80.0909C97.051 79.8714 99.0111 80.3742 100.612 81.5039C102.213 82.6337 103.344 84.3118 103.79 86.22C109.202 82.5487 115.512 80.421 122.041 80.0652C128.571 79.7094 135.075 81.1391 140.854 84.2006C146.632 87.2622 151.468 91.84 154.841 97.4424C158.214 103.045 159.998 109.46 160 116ZM76 60C76 62.3734 75.2962 64.6934 73.9776 66.6668C72.6591 68.6402 70.7849 70.1783 68.5922 71.0866C66.3995 71.9948 63.9867 72.2324 61.6589 71.7694C59.3311 71.3064 57.1929 70.1635 55.5147 68.4853C53.8365 66.8071 52.6936 64.6689 52.2306 62.3411C51.7676 60.0133 52.0052 57.6005 52.9134 55.4078C53.8217 53.2151 55.3598 51.3409 57.3332 50.0224C59.3066 48.7038 61.6266 48 64 48C67.1826 48 70.2348 49.2643 72.4853 51.5147C74.7357 53.7652 76 56.8174 76 60Z" fill="white"/>
</svg>
